<?xml version="1.0" standalone="no"?>
<!DOCTYPE svg PUBLIC "-//W3C//DTD SVG 20010904//EN"
 "http://www.w3.org/TR/2001/REC-SVG-20010904/DTD/svg10.dtd">
<svg version="1.0" xmlns="http://www.w3.org/2000/svg"
 width="150.000000pt" height="150.000000pt" viewBox="0 0 150.000000 150.000000"
 preserveAspectRatio="xMidYMid meet">
<metadata>
Created by potrace 1.16, written by Peter Selinger 2001-2019
</metadata>
<g transform="translate(0.000000,150.000000) scale(0.100000,-0.100000)"
fill="#000000" stroke="none">
<path d="M750 1445 l0 -55 -55 0 -55 0 0 -50 0 -50 -105 0 -105 0 0 -55 0 -55
-55 0 -55 0 0 -55 0 -55 -55 0 -55 0 0 -105 0 -105 -50 0 -50 0 0 -55 0 -55
-55 0 -55 0 0 -270 0 -270 55 0 55 0 0 -50 0 -50 50 0 50 0 0 -55 0 -55 215 0
215 0 0 55 0 55 55 0 55 0 0 50 0 50 55 0 55 0 0 55 0 55 50 0 50 0 0 55 0 55
55 0 55 0 0 55 0 55 55 0 55 0 0 50 0 50 55 0 55 0 0 55 0 55 50 0 50 0 0 55
0 55 55 0 55 0 0 215 0 215 -55 0 -55 0 0 50 0 50 -50 0 -50 0 0 55 0 55 -270
0 -270 0 0 -55z"/>
</g>
</svg>
